<svg xmlns="http://www.w3.org/2000/svg" viewBox="0 0 9500 3024" width="9500" height="3024" role="img" aria-label="The Nuci">
<g transform="translate(368 2222) scale(1 -1)"><path d="M720 1253V0H530V1253H46V1409H1204V1253Z" fill="#6B8F71"/></g>
<g transform="translate(1619 2222) scale(1 -1)"><path d="M317 897Q375 1003 456.5 1052.5Q538 1102 663 1102Q839 1102 922.5 1014.5Q1006 927 1006 721V0H825V686Q825 800 804.0 855.5Q783 911 735.0 937.0Q687 963 602 963Q475 963 398.5 875.0Q322 787 322 638V0H142V1484H322V1098Q322 1037 318.5 972.0Q315 907 314 897Z" fill="#6B8F71"/></g>
<g transform="translate(2758 2222) scale(1 -1)"><path d="M276 503Q276 317 353.0 216.0Q430 115 578 115Q695 115 765.5 162.0Q836 209 861 281L1019 236Q922 -20 578 -20Q338 -20 212.5 123.0Q87 266 87 548Q87 816 212.5 959.0Q338 1102 571 1102Q1048 1102 1048 527V503ZM862 641Q847 812 775.0 890.5Q703 969 568 969Q437 969 360.5 881.5Q284 794 278 641Z" fill="#6B8F71"/></g>
<g transform="translate(4466 2222) scale(1 -1)"><path d="M1082 0 328 1200 333 1103 338 936V0H168V1409H390L1152 201Q1140 397 1140 485V1409H1312V0Z" fill="#1A211C"/></g>
<g transform="translate(5945 2222) scale(1 -1)"><path d="M314 1082V396Q314 289 335.0 230.0Q356 171 402.0 145.0Q448 119 537 119Q667 119 742.0 208.0Q817 297 817 455V1082H997V231Q997 42 1003 0H833Q832 5 831.0 27.0Q830 49 828.5 77.5Q827 106 825 185H822Q760 73 678.5 26.5Q597 -20 476 -20Q298 -20 215.5 68.5Q133 157 133 361V1082Z" fill="#1A211C"/></g>
<g transform="translate(7084 2222) scale(1 -1)"><path d="M275 546Q275 330 343.0 226.0Q411 122 548 122Q644 122 708.5 174.0Q773 226 788 334L970 322Q949 166 837.0 73.0Q725 -20 553 -20Q326 -20 206.5 123.5Q87 267 87 542Q87 815 207.0 958.5Q327 1102 551 1102Q717 1102 826.5 1016.0Q936 930 964 779L779 765Q765 855 708.0 908.0Q651 961 546 961Q403 961 339.0 866.0Q275 771 275 546Z" fill="#1A211C"/></g>
<g transform="translate(8108 2222) scale(1 -1)"><path d="M137 1312V1484H317V1312ZM137 0V1082H317V0Z" fill="#1A211C"/></g>
<g transform="translate(8563 2222) scale(1 -1)"><path d="M187 0V219H382V0Z" fill="#6B8F71"/></g>
</svg>